<?xml version="1.0" encoding="utf-8"?>
<!-- Generator: Adobe Illustrator 26.3.1, SVG Export Plug-In . SVG Version: 6.00 Build 0)  -->
<svg version="1.1" xmlns="http://www.w3.org/2000/svg" xmlns:xlink="http://www.w3.org/1999/xlink" x="0px" y="0px"
	 viewBox="0 0 255.8 123.3" style="enable-background:new 0 0 255.8 123.3;" xml:space="preserve">
<g id="Layer_1">
</g>
<g id="Layer_2">
	<g>
		<path d="M118.3,60.8h-10.5v9.7h11.7v2.9h-15.2v-27h14.6v2.9h-11.1v8.5h10.5V60.8z"/>
		<path d="M127.8,48.6c0,1.2-0.8,2.2-2.2,2.2c-1.2,0-2.1-1-2.1-2.2c0-1.2,0.9-2.2,2.2-2.2C127,46.4,127.8,47.4,127.8,48.6z
			 M123.9,73.4V54h3.5v19.4H123.9z"/>
		<path d="M133.3,59.3c0-2,0-3.6-0.2-5.2h3.1l0.2,3.2h0.1c1-1.8,3.2-3.6,6.4-3.6c2.7,0,6.8,1.6,6.8,8.2v11.6h-3.5V62.2
			c0-3.1-1.2-5.7-4.5-5.7c-2.3,0-4.1,1.6-4.7,3.6c-0.2,0.4-0.2,1-0.2,1.6v11.6h-3.5V59.3z"/>
		<path d="M155,69.8c1,0.7,2.9,1.4,4.6,1.4c2.6,0,3.8-1.3,3.8-2.9c0-1.7-1-2.6-3.6-3.6c-3.5-1.2-5.1-3.2-5.1-5.5
			c0-3.1,2.5-5.7,6.7-5.7c2,0,3.7,0.6,4.8,1.2l-0.9,2.6c-0.8-0.5-2.2-1.1-4-1.1c-2.1,0-3.2,1.2-3.2,2.6c0,1.6,1.2,2.3,3.7,3.3
			c3.4,1.3,5.1,3,5.1,5.8c0,3.4-2.6,5.8-7.2,5.8c-2.1,0-4.1-0.5-5.4-1.3L155,69.8z"/>
		<path d="M187.5,68.1c0,2,0,3.8,0.2,5.3h-3.1l-0.2-3.2h-0.1c-0.9,1.6-3,3.6-6.4,3.6c-3,0-6.7-1.7-6.7-8.5V54h3.5v10.7
			c0,3.7,1.1,6.2,4.3,6.2c2.4,0,4-1.6,4.6-3.2c0.2-0.5,0.3-1.2,0.3-1.8V54h3.5V68.1z"/>
		<path d="M193.3,59.3c0-2,0-3.6-0.2-5.2h3.1l0.2,3.1h0.1c1.1-1.8,2.9-3.6,6.1-3.6c2.6,0,4.6,1.6,5.5,3.9h0.1
			c0.6-1.1,1.4-1.9,2.2-2.5c1.2-0.9,2.4-1.4,4.3-1.4c2.6,0,6.4,1.7,6.4,8.4v11.4h-3.4v-11c0-3.7-1.4-6-4.2-6c-2,0-3.6,1.5-4.2,3.2
			c-0.2,0.5-0.3,1.1-0.3,1.8v12h-3.4V61.8c0-3.1-1.4-5.3-4-5.3c-2.2,0-3.8,1.8-4.4,3.5c-0.2,0.5-0.3,1.1-0.3,1.7v11.7h-3.4V59.3z"/>
		<path d="M226.2,69.8c1,0.7,2.9,1.4,4.6,1.4c2.6,0,3.8-1.3,3.8-2.9c0-1.7-1-2.6-3.6-3.6c-3.5-1.2-5.1-3.2-5.1-5.5
			c0-3.1,2.5-5.7,6.7-5.7c2,0,3.7,0.6,4.8,1.2l-0.9,2.6c-0.8-0.5-2.2-1.1-4-1.1c-2.1,0-3.2,1.2-3.2,2.6c0,1.6,1.2,2.3,3.7,3.3
			c3.4,1.3,5.1,3,5.1,5.8c0,3.4-2.6,5.8-7.2,5.8c-2.1,0-4.1-0.5-5.4-1.3L226.2,69.8z"/>
	</g>
	<g>
		<path d="M86.4,59.2c0,4.2-0.8,8.1-2.4,11.7c-1.6,3.6-3.8,6.8-6.5,9.5c-2.7,2.7-6,4.8-9.6,6.3c-3.7,1.5-7.6,2.3-11.8,2.3
			c-4.2,0-8.1-0.8-11.8-2.3c-3.7-1.5-6.9-3.7-9.6-6.3c-2.7-2.7-4.9-5.8-6.5-9.5c-1.6-3.6-2.4-7.5-2.4-11.7c0-4.2,0.8-8.1,2.4-11.7
			c1.6-3.6,3.8-6.8,6.5-9.5c2.7-2.7,5.9-4.8,9.6-6.3c3.7-1.5,7.6-2.3,11.8-2.3c4.2,0,8.1,0.8,11.8,2.3c3.7,1.5,6.9,3.7,9.6,6.3
			c2.7,2.7,4.9,5.8,6.5,9.5C85.6,51.1,86.4,55,86.4,59.2z M37.5,45.1c-1.4,2-2.5,4.1-3.3,6.5c-0.8,2.4-1.1,4.9-1.1,7.6
			c0,2.7,0.4,5.3,1.1,7.6c0.8,2.4,1.8,4.6,3.3,6.5l14.2-14.2L37.5,45.1z M70.3,40.5c-1.9-1.5-4.1-2.7-6.5-3.5
			c-2.4-0.8-5-1.2-7.7-1.2c-2.8,0-5.4,0.4-7.8,1.2c-2.4,0.8-4.6,2-6.5,3.5l14.2,14.2L70.3,40.5z M41.9,77.9c1.9,1.5,4.1,2.7,6.5,3.5
			c2.4,0.8,5,1.2,7.7,1.2c2.7,0,5.3-0.4,7.7-1.2c2.4-0.8,4.6-2,6.5-3.5L56.1,63.7L41.9,77.9z M74.7,73.4c1.4-2,2.5-4.2,3.3-6.6
			c0.8-2.4,1.2-4.9,1.2-7.7c0-2.7-0.4-5.2-1.1-7.6c-0.8-2.4-1.9-4.5-3.3-6.5L60.6,59.2L74.7,73.4z"/>
	</g>
</g>
</svg>
